<?xml version="1.0" encoding="utf-8"?><svg viewBox="0 0 40 40" xmlns="http://www.w3.org/2000/svg" xmlns:xlink="http://www.w3.org/1999/xlink"><style>:root>svg{display:none}:root>svg:target{display:block}</style><svg fill="none" viewBox="0 0 40 40" id="tg" xmlns="http://www.w3.org/2000/svg"><path d="M27.22 13.097l-14.774 5.698c-1.008.405-1.003.967-.185 1.218l3.793 1.183 8.777-5.537c.415-.253.794-.117.482.16l-7.11 6.417H18.2l.002.001-.262 3.91c.383 0 .552-.175.767-.383l1.843-1.792 3.832 2.831c.707.39 1.215.19 1.39-.654l2.516-11.857c.258-1.032-.394-1.5-1.068-1.195z" fill="#fff"/><rect x="1" y="1" width="38" height="38" rx="4" stroke="#D5621D" stroke-width="2"/></svg><svg fill="none" viewBox="0 0 40 40" id="vk" xmlns="http://www.w3.org/2000/svg"><g clip-path="url(#bnabp6l6dsa)"><path fill-rule="evenodd" clip-rule="evenodd" d="M27.802 22.298s1.617 1.597 2.017 2.336c.008.01.014.023.018.035.163.273.203.487.123.645-.135.261-.592.392-.747.403h-2.858c-.199 0-.613-.052-1.117-.4-.385-.269-.768-.712-1.139-1.145-.554-.643-1.033-1.2-1.518-1.2a.548.548 0 00-.18.03c-.367.115-.833.638-.833 2.031 0 .436-.344.684-.585.684h-1.309c-.446 0-2.768-.156-4.827-2.327-2.523-2.658-4.789-7.99-4.81-8.037-.142-.345.154-.533.474-.533h2.886c.387 0 .513.234.601.444.102.241.48 1.205 1.1 2.288 1.004 1.762 1.621 2.48 2.114 2.48a.527.527 0 00.264-.07c.644-.355.524-2.655.494-3.129 0-.092 0-1.027-.33-1.479-.237-.324-.639-.45-.882-.496.065-.094.203-.238.38-.323.441-.22 1.238-.252 2.03-.252h.438c.858.012 1.08.067 1.392.146.628.15.64.557.585 1.943-.016.396-.033.842-.033 1.367 0 .112-.005.237-.005.364-.019.711-.044 1.512.458 1.841a.41.41 0 00.217.062c.174 0 .695 0 2.108-2.425.62-1.07 1.1-2.334 1.133-2.429.028-.053.112-.202.214-.262a.479.479 0 01.236-.056h3.395c.37 0 .621.056.67.196.082.227-.016.92-1.566 3.016-.26.35-.49.651-.69.915-1.406 1.844-1.406 1.937.082 3.337z" fill="#fff"/></g><rect x="1" y="1" width="38" height="38" rx="4" stroke="#D5621D" stroke-width="2"/><defs><clipPath id="bnabp6l6dsa"><path fill="#fff" transform="translate(10 10)" d="M0 0h20v20H0z"/></clipPath></defs></svg></svg>